<svg width="60" height="60" viewBox="0 0 60 60" fill="none" xmlns="http://www.w3.org/2000/svg">
<path opacity="0.6" d="M35.0766 32.4234C34.9024 32.2491 34.6956 32.1108 34.468 32.0165C34.2404 31.9221 33.9964 31.8735 33.75 31.8735C33.5036 31.8735 33.2596 31.9221 33.032 32.0165C32.8044 32.1108 32.5976 32.2491 32.4234 32.4234L28.125 36.7242L23.2758 31.875L27.5766 27.5766C27.9284 27.2247 28.126 26.7476 28.126 26.25C28.126 25.7525 27.9284 25.2753 27.5766 24.9234C27.2247 24.5716 26.7476 24.374 26.25 24.374C25.7524 24.374 25.2753 24.5716 24.9234 24.9234L20.625 29.2242L16.3266 24.9234C15.9747 24.5716 15.4976 24.374 15 24.374C14.5024 24.374 14.0253 24.5716 13.6734 24.9234C13.3216 25.2753 13.124 25.7525 13.124 26.25C13.124 26.7476 13.3216 27.2247 13.6734 27.5766L15.1617 29.0625L9.6961 34.5258C8.99948 35.2223 8.44688 36.0491 8.06986 36.9592C7.69284 37.8692 7.49879 38.8446 7.49879 39.8297C7.49879 40.8148 7.69284 41.7902 8.06986 42.7002C8.44688 43.6103 8.99948 44.4371 9.6961 45.1336L10.957 46.3922L4.29844 53.0484C4.12424 53.2227 3.98605 53.4295 3.89177 53.6571C3.79749 53.8847 3.74896 54.1286 3.74896 54.375C3.74896 54.6214 3.79749 54.8653 3.89177 55.0929C3.98605 55.3206 4.12424 55.5274 4.29844 55.7016C4.65027 56.0534 5.12745 56.2511 5.62501 56.2511C5.87137 56.2511 6.11532 56.2025 6.34294 56.1082C6.57055 56.014 6.77736 55.8758 6.95157 55.7016L13.6078 49.043L14.8664 50.3039C15.5629 51.0005 16.3897 51.5531 17.2998 51.9302C18.2098 52.3072 19.1853 52.5012 20.1703 52.5012C21.1554 52.5012 22.1308 52.3072 23.0408 51.9302C23.9509 51.5531 24.7778 51.0005 25.4742 50.3039L30.9375 44.8383L32.4234 46.3266C32.5976 46.5008 32.8045 46.639 33.0321 46.7332C33.2597 46.8275 33.5036 46.8761 33.75 46.8761C33.9964 46.8761 34.2403 46.8275 34.4679 46.7332C34.6955 46.639 34.9024 46.5008 35.0766 46.3266C35.2508 46.1524 35.389 45.9456 35.4832 45.7179C35.5775 45.4903 35.6261 45.2464 35.6261 45C35.6261 44.7536 35.5775 44.5097 35.4832 44.2821C35.389 44.0545 35.2508 43.8477 35.0766 43.6734L30.7758 39.375L35.0766 35.0766C35.2509 34.9024 35.3892 34.6956 35.4836 34.468C35.5779 34.2404 35.6265 33.9964 35.6265 33.75C35.6265 33.5036 35.5779 33.2596 35.4836 33.032C35.3892 32.8044 35.2509 32.5976 35.0766 32.4234ZM22.8211 47.6578C22.1179 48.3605 21.1645 48.7553 20.1703 48.7553C19.1762 48.7553 18.2227 48.3605 17.5195 47.6578L12.3492 42.4805C11.6465 41.7773 11.2517 40.8238 11.2517 39.8297C11.2517 38.8356 11.6465 37.8821 12.3492 37.1789L17.8125 31.7133L28.2867 42.1875L22.8211 47.6578ZM55.7016 4.29845C55.5274 4.12412 55.3206 3.98582 55.093 3.89146C54.8654 3.7971 54.6214 3.74854 54.375 3.74854C54.1286 3.74854 53.8846 3.7971 53.657 3.89146C53.4294 3.98582 53.2226 4.12412 53.0484 4.29845L46.3922 10.957L45.1336 9.6961C43.7255 8.29208 41.8182 7.50364 39.8297 7.50364C37.8412 7.50364 35.9339 8.29208 34.5258 9.6961L29.0625 15.1617L27.5766 13.6734C27.2247 13.3216 26.7476 13.124 26.25 13.124C25.7524 13.124 25.2753 13.3216 24.9234 13.6734C24.5716 14.0253 24.374 14.5025 24.374 15C24.374 15.4976 24.5716 15.9747 24.9234 16.3266L43.6734 35.0766C43.8476 35.2508 44.0545 35.389 44.2821 35.4832C44.5097 35.5775 44.7536 35.6261 45 35.6261C45.2464 35.6261 45.4903 35.5775 45.7179 35.4832C45.9455 35.389 46.1524 35.2508 46.3266 35.0766C46.5008 34.9024 46.639 34.6956 46.7332 34.4679C46.8275 34.2403 46.876 33.9964 46.8761 33.75C46.876 33.5036 46.8275 33.2597 46.7332 33.0321C46.639 32.8045 46.5008 32.5977 46.3266 32.4234L44.8383 30.9375L50.3039 25.4742C51.0005 24.7778 51.5531 23.9509 51.9302 23.0408C52.3072 22.1308 52.5012 21.1554 52.5012 20.1703C52.5012 19.1853 52.3072 18.2099 51.9302 17.2998C51.5531 16.3897 51.0005 15.5629 50.3039 14.8664L49.043 13.6078L55.7016 6.95157C55.8759 6.77744 56.0142 6.57064 56.1086 6.34302C56.2029 6.1154 56.2515 5.87141 56.2515 5.62501C56.2515 5.37861 56.2029 5.13462 56.1086 4.907C56.0142 4.67938 55.8759 4.47258 55.7016 4.29845ZM47.6508 22.8141L42.1875 28.2867L31.7133 17.8125L37.1789 12.3492C37.8821 11.6465 38.8356 11.2517 39.8297 11.2517C40.8238 11.2517 41.7773 11.6465 42.4805 12.3492L47.6508 17.5055C48.0009 17.8539 48.2786 18.2681 48.4682 18.7242C48.6577 19.1803 48.7553 19.6694 48.7553 20.1633C48.7553 20.6572 48.6577 21.1463 48.4682 21.6024C48.2786 22.0585 48.0009 22.4727 47.6508 22.8211V22.8141Z" fill="url(#paint0_linear_87_91)"/>
<defs>
<linearGradient id="paint0_linear_87_91" x1="30.0002" y1="3.74854" x2="30.0002" y2="56.2511" gradientUnits="userSpaceOnUse">
<stop stop-color="white"/>
<stop offset="1" stop-color="#999999"/>
</linearGradient>
</defs>
</svg>
